<?xml version="1.0" standalone="no"?>
<!DOCTYPE svg PUBLIC "-//W3C//DTD SVG 20010904//EN"
 "http://www.w3.org/TR/2001/REC-SVG-20010904/DTD/svg10.dtd">
<svg version="1.0" xmlns="http://www.w3.org/2000/svg"
 width="608.000000pt" height="600.000000pt" viewBox="0 0 608.000000 600.000000"
 preserveAspectRatio="xMidYMid meet">

<g transform="translate(0.000000,600.000000) scale(0.100000,-0.100000)"
fill="#000000" stroke="none">
<path d="M2891 5829 c-179 -35 -370 -151 -473 -286 -24 -32 -95 -141 -158
-243 -491 -801 -740 -1211 -740 -1220 0 -5 -5 -10 -12 -10 -6 0 -9 -3 -6 -6 4
-3 -31 -69 -77 -146 l-82 -140 120 -118 120 -118 85 29 c46 16 88 26 93 23 5
-3 9 -2 9 3 0 10 71 33 103 33 13 0 27 3 31 7 3 4 15 8 25 10 33 5 532 143
651 179 293 92 523 201 695 332 145 111 295 294 380 463 78 154 144 392 164
586 l11 103 -62 102 c-44 73 -89 129 -153 193 -125 125 -236 187 -394 220 -78
16 -257 19 -330 4z"/>
<path d="M4644 3934 c-83 -231 -242 -394 -461 -474 -160 -58 -289 -73 -778
-90 -511 -18 -655 -55 -915 -231 -341 -232 -631 -629 -902 -1234 -76 -169 -86
-194 -81 -199 4 -3 35 -6 69 -6 81 0 209 45 292 103 33 23 132 97 220 163 407
309 768 491 1027 519 77 9 196 -9 303 -45 147 -50 260 -118 647 -391 414 -290
676 -354 951 -229 119 54 260 213 325 368 82 197 78 453 -9 644 -25 55 -650
1088 -673 1112 -5 6 -11 1 -15 -10z"/>
</g>
</svg>
